<?xml version="1.0" encoding="UTF-8" standalone="no" ?>
<!DOCTYPE svg PUBLIC "-//W3C//DTD SVG 1.1//EN" "http://www.w3.org/Graphics/SVG/1.1/DTD/svg11.dtd">
<svg xmlns="http://www.w3.org/2000/svg" xmlns:xlink="http://www.w3.org/1999/xlink" version="1.1" width="1080" height="1080" viewBox="0 0 1080 1080" xml:space="preserve">
<desc>Created with Fabric.js 5.2.4</desc>
<defs>
</defs>
<rect x="0" y="0" width="100%" height="100%" fill="transparent"></rect>
<g transform="matrix(1 0 0 1 540 540)" id="3bf34586-832c-49ea-a37c-222fc7eddb6d"  >
<rect style="stroke: none; stroke-width: 1; stroke-dasharray: none; stroke-linecap: butt; stroke-dashoffset: 0; stroke-linejoin: miter; stroke-miterlimit: 4; fill: rgb(255,255,255); fill-rule: nonzero; opacity: 1; visibility: hidden;" vector-effect="non-scaling-stroke"  x="-540" y="-540" rx="0" ry="0" width="1080" height="1080" />
</g>
<g transform="matrix(1 0 0 1 540 540)" id="302a5848-a8b2-4979-b43f-b4daba8f4c5c"  >
</g>
<g transform="matrix(0 0 0 0 0 0)"  >
<g style=""   >
</g>
</g>
<g transform="matrix(33.8 0 0 33.8 536 545.09)"  >
<path style="stroke: rgb(0,0,0); stroke-opacity: 0; stroke-width: 0; stroke-dasharray: none; stroke-linecap: butt; stroke-dashoffset: 0; stroke-linejoin: miter; stroke-miterlimit: 4; fill: rgb(46,158,159); fill-rule: nonzero; opacity: 1;" vector-effect="non-scaling-stroke"  transform=" translate(-16, -16)" d="M 30.996 16.091 C 30.994999999999997 7.8100000000000005 24.281999999999996 1.0970000000000013 15.999999999999998 1.0970000000000013 C 7.718 1.0970000000000013 1.0039999999999978 7.811000000000002 1.0039999999999978 16.093000000000004 C 1.0039999999999978 23.548000000000002 6.443999999999998 29.732000000000003 13.569999999999999 30.893000000000004 L 13.655999999999999 30.905000000000005 L 13.655999999999999 20.427000000000007 L 9.847999999999999 20.427000000000007 L 9.847999999999999 16.091000000000008 L 13.655999999999999 16.091000000000008 L 13.655999999999999 12.789000000000009 C 13.636999999999999 12.622000000000009 13.626999999999999 12.428000000000008 13.626999999999999 12.232000000000008 C 13.626999999999999 9.309000000000008 15.997 6.939000000000008 18.919999999999998 6.939000000000008 C 19.060999999999996 6.939000000000008 19.200999999999997 6.945000000000008 19.34 6.955000000000008 L 19.322 6.954000000000008 C 20.521 6.971000000000008 21.680999999999997 7.077000000000008 22.813 7.266000000000008 L 22.679 7.247000000000008 L 22.679 10.937000000000008 L 20.787 10.937000000000008 C 20.701 10.925000000000008 20.602 10.918000000000008 20.502 10.918000000000008 C 19.305 10.918000000000008 18.334 11.888000000000009 18.334 13.08600000000001 C 18.334 13.154000000000009 18.337 13.221000000000009 18.343 13.28800000000001 L 18.342 13.279000000000009 L 18.342 16.091000000000008 L 22.500999999999998 16.091000000000008 L 21.836 20.427000000000007 L 18.342 20.427000000000007 L 18.342 30.90500000000001 C 25.555 29.73100000000001 30.994999999999997 23.546000000000006 30.996 16.091000000000008 L 30.996 16.091000000000008 z" stroke-linecap="round" />
</g>
</svg>