<?xml version="1.0" encoding="UTF-8" standalone="no" ?>
<!DOCTYPE svg PUBLIC "-//W3C//DTD SVG 1.1//EN" "http://www.w3.org/Graphics/SVG/1.1/DTD/svg11.dtd">
<svg xmlns="http://www.w3.org/2000/svg" xmlns:xlink="http://www.w3.org/1999/xlink" version="1.1" width="1080" height="1080" viewBox="0 0 1080 1080" xml:space="preserve">
<desc>Created with Fabric.js 5.2.4</desc>
<defs>
</defs>
<rect x="0" y="0" width="100%" height="100%" fill="transparent"></rect>
<g transform="matrix(1 0 0 1 540 540)" id="3bf34586-832c-49ea-a37c-222fc7eddb6d"  >
<rect style="stroke: none; stroke-width: 1; stroke-dasharray: none; stroke-linecap: butt; stroke-dashoffset: 0; stroke-linejoin: miter; stroke-miterlimit: 4; fill: rgb(255,255,255); fill-rule: nonzero; opacity: 1; visibility: hidden;" vector-effect="non-scaling-stroke"  x="-540" y="-540" rx="0" ry="0" width="1080" height="1080" />
</g>
<g transform="matrix(1 0 0 1 540 540)" id="302a5848-a8b2-4979-b43f-b4daba8f4c5c"  >
</g>
<g transform="matrix(0 0 0 0 0 0)"  >
<g style=""   >
</g>
</g>
<g transform="matrix(1.31 0 0 1.31 540 540)"  >
<g style="" vector-effect="non-scaling-stroke"   >
		<g transform="matrix(34.33 0 0 34.33 -64.36 -293.38)"  >
<path style="stroke: none; stroke-width: 1; stroke-dasharray: none; stroke-linecap: butt; stroke-dashoffset: 0; stroke-linejoin: miter; stroke-miterlimit: 4; fill: rgb(46,158,159); fill-rule: nonzero; opacity: 1;" vector-effect="non-scaling-stroke"  transform=" translate(-10.13, -3.45)" d="M 14.45 0.78 C 11.324444644650821 -0.21412796746235374 7.907951859904156 0.7772473955103771 5.800000000000001 3.2899999999999983 L 9.63 6.51 Z" stroke-linecap="round" />
</g>
		<g transform="matrix(34.33 0 0 34.33 -179.56 -143.5)"  >
<path style="stroke: none; stroke-width: 1; stroke-dasharray: none; stroke-linecap: butt; stroke-dashoffset: 0; stroke-linejoin: miter; stroke-miterlimit: 4; fill: rgb(46,158,159); fill-rule: nonzero; opacity: 1;" vector-effect="non-scaling-stroke"  transform=" translate(-6.77, -7.82)" d="M 5.8 3.29 C 4.576929107138658 4.746466990504791 3.907563373920163 6.5881081612646675 3.9099999999999993 8.490000000000002 C 3.8901256631249783 9.819788205048308 4.163256708764615 11.137645500259548 4.710000000000001 12.35 L 9.63 6.51 Z" stroke-linecap="round" />
</g>
		<g transform="matrix(34.33 0 0 34.33 82.59 -218.86)"  >
<path style="stroke: none; stroke-width: 1; stroke-dasharray: none; stroke-linecap: butt; stroke-dashoffset: 0; stroke-linejoin: miter; stroke-miterlimit: 4; fill: rgb(46,158,159); fill-rule: nonzero; opacity: 1;" vector-effect="non-scaling-stroke"  transform=" translate(-14.41, -5.63)" d="M 12 5.4 C 12.821250209782216 5.397342218401649 13.60977526104707 5.72172117129925 14.191427285071484 6.301496898471973 C 14.773079309095898 6.881272625644695 15.100004300628752 7.668745489600294 15.1 8.490000000000002 C 15.101127448450306 9.223831402459467 14.838501485247132 9.933631303008585 14.36 10.49 L 19.18 4.76 C 18.19384641192474 2.854019229442808 16.4932902011401 1.4159167256080165 14.45 0.7599999999999998 L 9.63 6.51 C 10.214832056674183 5.804943948165157 11.08396064925846 5.397883721258597 11.999999999999998 5.4 Z" stroke-linecap="round" />
</g>
		<g transform="matrix(34.33 0 0 34.33 -84.27 1.56)"  >
<path style="stroke: none; stroke-width: 1; stroke-dasharray: none; stroke-linecap: butt; stroke-dashoffset: 0; stroke-linejoin: miter; stroke-miterlimit: 4; fill: rgb(46,158,159); fill-rule: nonzero; opacity: 1;" vector-effect="non-scaling-stroke"  transform=" translate(-9.55, -12.05)" d="M 12 11.59 C 10.28791727552454 11.59 8.9 10.20208272447546 8.9 8.49 C 8.896973853476723 7.757598798468803 9.155887740501235 7.048245683333151 9.63 6.489999999999999 L 4.71 12.35 C 5.73338259179709 14.231596104502529 6.964397291068471 15.992584434522884 8.38000000000001 17.6 L 14.38 10.490000000000002 C 13.79100875959632 11.19403365805167 12.91788706138902 11.597577300080252 12 11.59 Z" stroke-linecap="round" />
</g>
		<g transform="matrix(34.33 0 0 34.33 76.75 75.72)"  >
<path style="stroke: none; stroke-width: 1; stroke-dasharray: none; stroke-linecap: butt; stroke-dashoffset: 0; stroke-linejoin: miter; stroke-miterlimit: 4; fill: rgb(46,158,159); fill-rule: nonzero; opacity: 1;" vector-effect="non-scaling-stroke"  transform=" translate(-14.23, -14.21)" d="M 14.25 19.54 C 16.95 15.32 20.09 13.399999999999999 20.09 8.54 C 20.089978514345532 7.241705222478572 19.77787821661966 5.9624369691626224 19.18 4.809999999999997 L 8.38 17.6 C 8.840000000000002 18.200000000000003 9.3 18.84 9.75 19.540000000000003 C 11.4 22.08 10.94 23.6 12 23.6 C 13.06 23.6 12.6 22.08 14.25 19.54 Z" stroke-linecap="round" />
</g>
</g>
</g>
</svg>