<?xml version="1.0" encoding="UTF-8" standalone="no" ?>
<!DOCTYPE svg PUBLIC "-//W3C//DTD SVG 1.1//EN" "http://www.w3.org/Graphics/SVG/1.1/DTD/svg11.dtd">
<svg xmlns="http://www.w3.org/2000/svg" xmlns:xlink="http://www.w3.org/1999/xlink" version="1.1" width="1080" height="1080" viewBox="0 0 1080 1080" xml:space="preserve">
<desc>Created with Fabric.js 5.2.4</desc>
<defs>
</defs>
<rect x="0" y="0" width="100%" height="100%" fill="transparent"></rect>
<g transform="matrix(1 0 0 1 540 540)" id="302a5848-a8b2-4979-b43f-b4daba8f4c5c"  >
</g>
<g transform="matrix(1 0 0 1 540 540)" id="3bf34586-832c-49ea-a37c-222fc7eddb6d"  >
<rect style="stroke: none; stroke-width: 1; stroke-dasharray: none; stroke-linecap: butt; stroke-dashoffset: 0; stroke-linejoin: miter; stroke-miterlimit: 4; fill: rgb(255,255,255); fill-rule: nonzero; opacity: 1; visibility: hidden;" vector-effect="non-scaling-stroke"  x="-540" y="-540" rx="0" ry="0" width="1080" height="1080" />
</g>
<g transform="matrix(0 0 0 0 0 0)"  >
<g style=""   >
</g>
</g>
<g transform="matrix(1.3 0 0 1.3 540.55 543.5)"  >
<g style="" vector-effect="non-scaling-stroke"   >
		<g transform="matrix(8.18 0 0 8.18 149.75 25.67)"  >
<path style="stroke: none; stroke-width: 1; stroke-dasharray: none; stroke-linecap: butt; stroke-dashoffset: 0; stroke-linejoin: miter; stroke-miterlimit: 4; fill: rgb(46,158,159); fill-rule: nonzero; opacity: 1;" vector-effect="non-scaling-stroke"  transform=" translate(-67.17, -52.01)" d="M 67.211 46.07 C 63.92 46.07 61.239999999999995 48.718 61.229 51.987 C 61.217 55.239000000000004 63.91 57.946 67.168 57.954 C 70.43400000000001 57.964 73.117 55.28 73.11500000000001 52.011 C 73.113 48.732 70.465 46.07 67.211 46.07 z M 67.211 55.02 C 65.525 55.02 64.16799999999999 53.688 64.172 52.037000000000006 C 64.17399999999999 50.321000000000005 65.49 48.998000000000005 67.192 48.99600000000001 C 68.85799999999999 48.99400000000001 70.223 50.35800000000001 70.20899999999999 52.01700000000001 C 70.189 53.672 68.848 55.02 67.211 55.02 z" stroke-linecap="round" />
</g>
		<g transform="matrix(8.18 0 0 8.18 -150.11 27)"  >
<path style="stroke: none; stroke-width: 1; stroke-dasharray: none; stroke-linecap: butt; stroke-dashoffset: 0; stroke-linejoin: miter; stroke-miterlimit: 4; fill: rgb(46,158,159); fill-rule: nonzero; opacity: 1;" vector-effect="non-scaling-stroke"  transform=" translate(-30.53, -52.17)" d="M 30.512 37.514 C 22.612000000000002 37.444 15.725 44.037000000000006 15.862 52.435 C 15.991 60.267 22.445999999999998 66.907 30.676000000000002 66.83500000000001 C 38.723 66.76700000000001 45.192 60.19400000000001 45.207 52.23500000000001 C 45.219 44.063 38.672 37.514 30.512 37.514 z M 30.748 61.1 C 25.455000000000002 61.342 21.184 57.123000000000005 21.193 52 C 21.203000000000003 46.809 25.48 42.838 30.318 42.926 C 35.341 42.92 39.418 46.975 39.404 51.996 C 39.391 57.078 35.385 60.889 30.748 61.1 z" stroke-linecap="round" />
</g>
		<g transform="matrix(8.18 0 0 8.18 0 0)"  >
<path style="stroke: none; stroke-width: 1; stroke-dasharray: none; stroke-linecap: butt; stroke-dashoffset: 0; stroke-linejoin: miter; stroke-miterlimit: 4; fill: rgb(46,158,159); fill-rule: nonzero; opacity: 1;" vector-effect="non-scaling-stroke"  transform=" translate(-48.88, -48.88)" d="M 48.875 0 C 21.883 0 0 21.883 0 48.875 C 0 75.867 21.883 97.75 48.875 97.75 C 75.867 97.75 97.75 75.867 97.75 48.875 C 97.75 21.882999999999996 75.867 0 48.875 0 z M 76.971 67.852 C 73.98700000000001 69.748 70.688 70.647 67.164 70.666 C 65.684 70.676 64.209 70.477 62.764 70.102 C 59.242000000000004 69.188 56.219 67.43 53.729 64.772 C 53.399 64.42200000000001 53.089999999999996 64.05900000000001 52.742 63.66400000000001 C 51.425999999999995 65.62500000000001 50.131 67.55600000000001 48.803 69.53500000000001 C 47.483 67.561 46.202999999999996 65.64900000000002 44.93 63.74800000000001 C 44.842 63.79300000000001 44.817 63.799000000000014 44.799 63.81300000000001 C 44.769999999999996 63.83800000000001 44.744 63.86900000000001 44.723 63.89500000000001 C 41.711 67.45100000000001 37.922 69.629 33.309 70.36000000000001 C 30.740999999999996 70.76600000000002 28.199999999999996 70.62100000000001 25.705 69.93200000000002 C 22.171999999999997 68.96100000000001 19.168 67.09800000000001 16.741999999999997 64.34600000000002 C 14.370999999999997 61.658000000000015 12.895999999999997 58.53400000000002 12.343999999999998 54.98300000000002 C 11.710999999999999 51.67100000000002 12.480999999999998 48.475000000000016 12.673999999999998 47.70100000000002 C 13.232999999999997 45.44900000000002 14.204999999999998 43.37900000000002 15.540999999999997 41.47600000000002 C 15.634999999999996 41.34100000000002 15.667999999999997 41.10100000000002 15.622999999999998 40.941000000000024 C 15.077999999999998 38.943000000000026 14.140999999999998 37.12500000000002 13.040999999999997 35.38400000000002 C 12.761999999999997 34.94300000000002 12.427999999999997 34.53400000000002 12.118999999999996 34.10900000000002 C 12.118999999999996 34.060000000000024 12.118999999999996 34.011000000000024 12.118999999999996 33.96100000000002 C 12.179999999999996 33.96900000000002 12.241999999999996 33.98100000000002 12.302999999999995 33.98100000000002 C 15.999999999999996 33.983000000000025 19.698999999999995 33.983000000000025 23.396999999999995 33.977000000000025 C 23.558999999999994 33.977000000000025 23.736999999999995 33.91100000000002 23.875999999999994 33.82300000000002 C 26.473999999999993 32.15500000000002 29.242999999999995 30.835000000000022 32.150999999999996 29.807000000000023 C 34.248999999999995 29.067000000000025 36.388999999999996 28.489000000000022 38.574999999999996 28.065000000000023 C 40.69 27.65700000000002 42.815 27.368000000000023 44.964 27.22700000000002 C 50.202 26.82300000000002 54.39 27.37700000000002 57.175 27.766000000000023 C 59.227999999999994 28.055000000000025 61.239 28.57300000000002 63.226 29.182000000000023 C 66.695 30.250000000000025 69.966 31.735000000000024 73.044 33.65900000000002 C 73.25699999999999 33.79200000000002 73.544 33.87600000000002 73.79599999999999 33.87600000000002 C 77.40899999999999 33.89200000000002 81.023 33.88600000000002 84.636 33.89000000000002 C 84.92699999999999 33.89000000000002 85.21799999999999 33.92100000000002 85.50699999999999 33.93700000000002 C 85.50699999999999 34.00700000000002 85.517 34.03700000000002 85.505 34.054000000000016 C 85.33699999999999 34.31200000000002 85.16499999999999 34.570000000000014 84.997 34.829000000000015 C 83.772 36.70800000000001 82.724 38.677000000000014 82.104 40.850000000000016 C 82.038 41.082000000000015 82.022 41.27800000000001 82.17999999999999 41.50800000000002 C 85.39899999999999 46.12900000000002 86.42299999999999 51.201000000000015 85.079 56.670000000000016 C 83.898 61.465 81.15 65.203 76.971 67.852 z" stroke-linecap="round" />
</g>
		<g transform="matrix(8.18 0 0 8.18 -152.08 25.68)"  >
<path style="stroke: none; stroke-width: 1; stroke-dasharray: none; stroke-linecap: butt; stroke-dashoffset: 0; stroke-linejoin: miter; stroke-miterlimit: 4; fill: rgb(46,158,159); fill-rule: nonzero; opacity: 1;" vector-effect="non-scaling-stroke"  transform=" translate(-30.29, -52.01)" d="M 30.236 46.07 C 27.027 46.076 24.338 48.785 24.345 52.006 C 24.352999999999998 55.266 27.04 57.947 30.308 57.955 C 33.556 57.963 36.247 55.257999999999996 36.24 51.989999999999995 C 36.23 48.691 33.564 46.064 30.236 46.07 z M 30.311 55.051 C 28.588 55.053000000000004 27.259999999999998 53.723 27.259999999999998 51.99 C 27.259999999999998 50.289 28.586 48.969 30.302999999999997 48.967 C 31.991999999999997 48.964999999999996 33.352 50.315 33.36 52.001999999999995 C 33.365 53.674 31.994 55.045 30.311 55.051 z" stroke-linecap="round" />
</g>
		<g transform="matrix(8.18 0 0 8.18 150.09 27.56)"  >
<path style="stroke: none; stroke-width: 1; stroke-dasharray: none; stroke-linecap: butt; stroke-dashoffset: 0; stroke-linejoin: miter; stroke-miterlimit: 4; fill: rgb(46,158,159); fill-rule: nonzero; opacity: 1;" vector-effect="non-scaling-stroke"  transform=" translate(-67.21, -52.24)" d="M 66.902 37.57 C 58.883 37.734 52.607 44.197 52.535 52.192 C 52.535 60.313 59.125 66.94800000000001 67.217 66.917 C 75.34 66.888 81.899 60.44 81.893 52.229 C 81.889 43.766 75.023 37.404 66.902 37.57 z M 67.562 61.102 C 62.291 61.305 58.07299999999999 57.102 58.074999999999996 52.007999999999996 C 58.077 46.854 62.327 42.837999999999994 67.187 42.925999999999995 C 72.214 42.916 76.286 46.964999999999996 76.286 51.986999999999995 C 76.285 57.027 72.283 60.922 67.562 61.102 z" stroke-linecap="round" />
</g>
		<g transform="matrix(8.18 0 0 8.18 -1.11 -72.51)"  >
<path style="stroke: none; stroke-width: 1; stroke-dasharray: none; stroke-linecap: butt; stroke-dashoffset: 0; stroke-linejoin: miter; stroke-miterlimit: 4; fill: rgb(46,158,159); fill-rule: nonzero; opacity: 1;" vector-effect="non-scaling-stroke"  transform=" translate(-48.74, -40.02)" d="M 54.732 38.639 C 57.98 35.659000000000006 61.849 34.096000000000004 66.238 33.764 C 61.028999999999996 31.450000000000003 55.537 30.465000000000003 49.882999999999996 30.356 C 43.458999999999996 30.231 37.208999999999996 31.178 31.239999999999995 33.682 C 35.702999999999996 33.953 39.62299999999999 35.510000000000005 42.934999999999995 38.52 C 46.239999999999995 41.528000000000006 48.17699999999999 45.276 48.879999999999995 49.68600000000001 C 49.604 45.328 51.488 41.613 54.732 38.639 z" stroke-linecap="round" />
</g>
</g>
</g>
</svg>